{"title":"Pirates Code: The Adventures of Mickey Matson DVDRIP AC3 XVID VA","uid":11972102,"size":1474101455,"categoryP":"video","categoryS":"movies","magnet":"?xt=urn:btih:13a544f289216fc0f504f3f5f114c73fa835ccd9&amp;dn=Pirates+Code%3A+The+Adventures+of+Mickey+Matson+DVDRIP+AC3+XVID+VA&amp;tr=udp%3A%2F%2Ftracker.openbittorrent.com%3A80&amp;tr=udp%3A%2F%2Fopen.demonii.com%3A1337&amp;tr=udp%3A%2F%2Ftracker.coppersurfer.tk%3A6969&amp;tr=udp%3A%2F%2Fexodus.desync.com%3A6969","seeders":11,"leechers":4,"uploader":".BONE.","files":2,"time":1432869057,"description":"Storyline:\nHeroes Mickey and his best friend, Sully, are forced to take on a mission to save our country from the evil plans of Admiral Ironsides. The Admiral and his motley crew of modern day pirates have taken control of a large merchant ship with plans of deploying a new type of weapon that could destroy every electronic device on Earth. If Ironsides succeeds, it could be the end of the world as we know it\n &lt;a href=&quot;\nhttp://www.imdb.com/title/tt3130082/&quot; rel=&quot;nofollow&quot; target=&quot;_NEW&quot;&gt;\nhttp://www.imdb.com/title/tt3130082/&lt;/a&gt;\n\nSpecs:\nGeneral\nComplete name : Pirate.Code.DVDRiP.AC3.XviD.VAiN.avi\nFormat : AVI\nFormat/Info : Audio Video Interleave\nFile size : 1.37 GiB\nDuration : 1h 31mn\nOverall bit rate : 2 151 Kbps\nWriting application : VirtualDubMod 1.5.10.2 (build 2540/release)\nWriting library : VirtualDubMod build 2540/release\n\nVideo\nID : 0\nFormat : MPEG-4 Visual\nFormat profile : Advanced Simple@L5\nFormat settings, BVOP : 1\nFormat settings, QPel : No\nFormat settings, GMC : No warppoints\nFormat settings, Matrix : Default (MPEG)\nCodec ID : XVID\nCodec ID/Hint : XviD\nDuration : 1h 31mn\nBit rate : 1 694 Kbps\nWidth : 720 pixels\nHeight : 288 pixels\nDisplay aspect ratio : 2.500\nFrame rate : 23.976 fps\nColor space : YUV\nChroma subsampling : 4:2:0\nBit depth : 8 bits\nScan type : Progressive\nCompression mode : Lossy\nBits/(Pixel*Frame) : 0.341\nStream size : 1.08 GiB (79%)\nWriting library : XviD 1.2.1 (UTC 2008-12-04)\n\nAudio\nID : 1\nFormat : AC-3\nFormat/Info : Audio Coding 3\nMode extension : CM (complete main)\nFormat settings, Endianness : Big\nCodec ID : 2000\nDuration : 1h 31mn\nBit rate mode : Constant\nBit rate : 448 Kbps\nChannel(s) : 6 channels\nChannel positions : Front: L C R, Side: L R, LFE\nSampling rate : 48.0 KHz\nBit depth : 16 bits\nCompression mode : Lossy\nStream size : 293 MiB (21%)\nAlignment : Split accross interleaves\nInterleave, duration : 42 ms (1.00 video frame)\nInterleave, preload duration : 500 ms","torrent":{"xt":"urn:btih:13a544f289216fc0f504f3f5f114c73fa835ccd9","amp;dn":"Pirates+Code%3A+The+Adventures+of+Mickey+Matson+DVDRIP+AC3+XVID+VA","amp;tr":["udp%3A%2F%2Ftracker.openbittorrent.com%3A80","udp%3A%2F%2Fopen.demonii.com%3A1337","udp%3A%2F%2Ftracker.coppersurfer.tk%3A6969","udp%3A%2F%2Fexodus.desync.com%3A6969"],"infoHash":"13a544f289216fc0f504f3f5f114c73fa835ccd9","infoHashBuffer":{"type":"Buffer","data":[19,165,68,242,137,33,111,192,245,4,243,245,241,20,199,63,168,53,204,217]},"announce":[],"urlList":[]}}